<mxfile modified="2022-06-18T04:04:01.916Z" host="app.diagrams.net" agent="5.0 (Windows NT 10.0; Win64; x64) AppleWebKit/537.36 (KHTML, like Gecko) Chrome/86.0.4240.198 Safari/537.36" etag="gMfS0SKqczOat7hD1_90" version="20.0.1" type="github">
  <diagram id="Ht1M8jgEwFfnCIfOTk4-" name="Page-1">
    <mxGraphModel dx="2966" dy="3211" grid="0" gridSize="10" guides="1" tooltips="1" connect="1" arrows="1" fold="1" page="1" pageScale="1" pageWidth="1169" pageHeight="827" math="0" shadow="0">
      <root>
        <mxCell id="0" />
        <mxCell id="1" parent="0" />
        <mxCell id="byvvLO80dV4j0Tp1s94O-178" style="rounded=0;orthogonalLoop=1;jettySize=auto;html=1;entryX=0.5;entryY=0;entryDx=0;entryDy=0;fontSize=36;fontColor=#FF3333;startArrow=none;startFill=0;endArrow=none;endFill=0;" edge="1" parent="1" source="SCVMTBWpLvtzJIhz15lM-30" target="byvvLO80dV4j0Tp1s94O-2">
          <mxGeometry relative="1" as="geometry" />
        </mxCell>
        <mxCell id="byvvLO80dV4j0Tp1s94O-179" style="rounded=0;orthogonalLoop=1;jettySize=auto;html=1;fontSize=36;fontColor=#FF3333;startArrow=none;startFill=0;endArrow=none;endFill=0;" edge="1" parent="1" source="SCVMTBWpLvtzJIhz15lM-30">
          <mxGeometry relative="1" as="geometry">
            <mxPoint x="1566.199951171875" y="-1497.3999938964844" as="targetPoint" />
          </mxGeometry>
        </mxCell>
        <mxCell id="SCVMTBWpLvtzJIhz15lM-30" value="&lt;font color=&quot;#ff3333&quot; style=&quot;font-size: 36px;&quot;&gt;client&lt;/font&gt;" style="outlineConnect=0;strokeColor=#006EAF;fillColor=#1ba1e2;dashed=0;verticalLabelPosition=bottom;verticalAlign=top;align=center;html=1;fontSize=12;fontStyle=0;aspect=fixed;shape=mxgraph.aws4.illustration_devices;pointerEvents=1;fontColor=#ffffff;" parent="1" vertex="1">
          <mxGeometry x="1116" y="-1612" width="125.89" height="92" as="geometry" />
        </mxCell>
        <mxCell id="byvvLO80dV4j0Tp1s94O-2" value="" style="rounded=1;whiteSpace=wrap;html=1;fillColor=#eeeeee;strokeColor=#36393d;" vertex="1" parent="1">
          <mxGeometry x="489" y="-1486" width="627" height="1150" as="geometry" />
        </mxCell>
        <mxCell id="byvvLO80dV4j0Tp1s94O-74" style="edgeStyle=none;rounded=0;orthogonalLoop=1;jettySize=auto;html=1;fontSize=26;fontColor=#FF3333;startArrow=none;startFill=0;endArrow=none;endFill=0;" edge="1" parent="1" source="byvvLO80dV4j0Tp1s94O-4">
          <mxGeometry relative="1" as="geometry">
            <mxPoint x="693.5" y="-800" as="targetPoint" />
          </mxGeometry>
        </mxCell>
        <mxCell id="byvvLO80dV4j0Tp1s94O-75" style="edgeStyle=none;rounded=0;orthogonalLoop=1;jettySize=auto;html=1;fontSize=26;fontColor=#FF3333;startArrow=none;startFill=0;endArrow=none;endFill=0;" edge="1" parent="1" source="byvvLO80dV4j0Tp1s94O-4">
          <mxGeometry relative="1" as="geometry">
            <mxPoint x="922.0999755859375" y="-799.815" as="targetPoint" />
          </mxGeometry>
        </mxCell>
        <mxCell id="byvvLO80dV4j0Tp1s94O-4" value="&lt;font color=&quot;#ff3333&quot; style=&quot;font-size: 26px;&quot;&gt;redis集群&lt;/font&gt;" style="aspect=fixed;html=1;points=[];align=center;image;fontSize=12;image=img/lib/azure2/databases/Cache_Redis.svg;" vertex="1" parent="1">
          <mxGeometry x="758.12" y="-841" width="101.38" height="82.37" as="geometry" />
        </mxCell>
        <mxCell id="byvvLO80dV4j0Tp1s94O-5" value="" style="aspect=fixed;html=1;points=[];align=center;image;fontSize=12;image=img/lib/azure2/networking/DNS_Zones.svg;" vertex="1" parent="1">
          <mxGeometry x="977.5" y="-1463" width="64" height="64" as="geometry" />
        </mxCell>
        <mxCell id="byvvLO80dV4j0Tp1s94O-6" value="" style="aspect=fixed;html=1;points=[];align=center;image;fontSize=12;image=img/lib/azure2/networking/Application_Gateways.svg;" vertex="1" parent="1">
          <mxGeometry x="690.5" y="-1420" width="64" height="64" as="geometry" />
        </mxCell>
        <mxCell id="byvvLO80dV4j0Tp1s94O-7" value="&lt;font color=&quot;#ff3333&quot; style=&quot;font-size: 24px;&quot;&gt;SLB&lt;/font&gt;" style="aspect=fixed;html=1;points=[];align=center;image;fontSize=12;image=img/lib/azure2/networking/Load_Balancers.svg;" vertex="1" parent="1">
          <mxGeometry x="495.5" y="-1314" width="72" height="72" as="geometry" />
        </mxCell>
        <mxCell id="byvvLO80dV4j0Tp1s94O-9" value="" style="rounded=0;orthogonalLoop=1;jettySize=auto;html=1;fontSize=24;fontColor=#FF3333;startArrow=none;startFill=0;endArrow=none;endFill=0;" edge="1" parent="1" source="byvvLO80dV4j0Tp1s94O-8" target="byvvLO80dV4j0Tp1s94O-6">
          <mxGeometry relative="1" as="geometry" />
        </mxCell>
        <mxCell id="byvvLO80dV4j0Tp1s94O-17" value="" style="group" vertex="1" connectable="0" parent="1">
          <mxGeometry x="616.5" y="-1286" width="161" height="142" as="geometry" />
        </mxCell>
        <mxCell id="byvvLO80dV4j0Tp1s94O-12" value="" style="verticalAlign=top;verticalLabelPosition=bottom;labelPosition=center;align=center;html=1;outlineConnect=0;fillColor=#42B8FC;strokeColor=#6c8ebf;gradientDirection=north;strokeWidth=2;shape=mxgraph.networks.server;fontSize=24;" vertex="1" parent="byvvLO80dV4j0Tp1s94O-17">
          <mxGeometry x="14" y="28" width="58" height="94" as="geometry" />
        </mxCell>
        <mxCell id="byvvLO80dV4j0Tp1s94O-14" value="" style="verticalAlign=top;verticalLabelPosition=bottom;labelPosition=center;align=center;html=1;outlineConnect=0;fillColor=#42B8FC;strokeColor=#6c8ebf;gradientDirection=north;strokeWidth=2;shape=mxgraph.networks.server;fontSize=24;" vertex="1" parent="byvvLO80dV4j0Tp1s94O-17">
          <mxGeometry x="88" y="28" width="58" height="94" as="geometry" />
        </mxCell>
        <mxCell id="byvvLO80dV4j0Tp1s94O-16" value="" style="rounded=1;whiteSpace=wrap;html=1;fontSize=24;fontColor=#FF3333;fillColor=none;" vertex="1" parent="byvvLO80dV4j0Tp1s94O-17">
          <mxGeometry width="161" height="142" as="geometry" />
        </mxCell>
        <mxCell id="byvvLO80dV4j0Tp1s94O-18" value="" style="group" vertex="1" connectable="0" parent="1">
          <mxGeometry x="841.5" y="-1286" width="161" height="142" as="geometry" />
        </mxCell>
        <mxCell id="byvvLO80dV4j0Tp1s94O-19" value="" style="verticalAlign=top;verticalLabelPosition=bottom;labelPosition=center;align=center;html=1;outlineConnect=0;fillColor=#42B8FC;strokeColor=#6c8ebf;gradientDirection=north;strokeWidth=2;shape=mxgraph.networks.server;fontSize=24;" vertex="1" parent="byvvLO80dV4j0Tp1s94O-18">
          <mxGeometry x="14" y="28" width="58" height="94" as="geometry" />
        </mxCell>
        <mxCell id="byvvLO80dV4j0Tp1s94O-20" value="" style="verticalAlign=top;verticalLabelPosition=bottom;labelPosition=center;align=center;html=1;outlineConnect=0;fillColor=#42B8FC;strokeColor=#6c8ebf;gradientDirection=north;strokeWidth=2;shape=mxgraph.networks.server;fontSize=24;" vertex="1" parent="byvvLO80dV4j0Tp1s94O-18">
          <mxGeometry x="88" y="28" width="58" height="94" as="geometry" />
        </mxCell>
        <mxCell id="byvvLO80dV4j0Tp1s94O-21" value="" style="rounded=1;whiteSpace=wrap;html=1;fontSize=24;fontColor=#FF3333;fillColor=none;" vertex="1" parent="byvvLO80dV4j0Tp1s94O-18">
          <mxGeometry width="161" height="142" as="geometry" />
        </mxCell>
        <mxCell id="byvvLO80dV4j0Tp1s94O-24" value="&lt;font style=&quot;font-size: 24px;&quot; color=&quot;#ffffff&quot;&gt;应用集群&lt;/font&gt;" style="rounded=1;whiteSpace=wrap;html=1;fontSize=24;fillColor=#f0a30a;strokeColor=#BD7000;fontColor=#000000;" vertex="1" parent="1">
          <mxGeometry x="726.5" y="-1248.5" width="196" height="67" as="geometry" />
        </mxCell>
        <mxCell id="byvvLO80dV4j0Tp1s94O-26" value="" style="endArrow=none;html=1;rounded=0;fontSize=24;fontColor=#FFFFFF;startArrow=none;" edge="1" parent="1" source="byvvLO80dV4j0Tp1s94O-8">
          <mxGeometry width="50" height="50" relative="1" as="geometry">
            <mxPoint x="910.5" y="-1366" as="sourcePoint" />
            <mxPoint x="979.5" y="-1412" as="targetPoint" />
          </mxGeometry>
        </mxCell>
        <mxCell id="byvvLO80dV4j0Tp1s94O-27" value="" style="endArrow=none;html=1;rounded=0;fontSize=24;fontColor=#FFFFFF;exitX=0.5;exitY=0;exitDx=0;exitDy=0;entryX=0.438;entryY=1;entryDx=0;entryDy=0;entryPerimeter=0;" edge="1" parent="1" source="byvvLO80dV4j0Tp1s94O-16" target="byvvLO80dV4j0Tp1s94O-6">
          <mxGeometry width="50" height="50" relative="1" as="geometry">
            <mxPoint x="582.5" y="-1341" as="sourcePoint" />
            <mxPoint x="735.5" y="-1343" as="targetPoint" />
          </mxGeometry>
        </mxCell>
        <mxCell id="byvvLO80dV4j0Tp1s94O-28" value="" style="endArrow=none;html=1;rounded=0;fontSize=24;fontColor=#FFFFFF;exitX=0.5;exitY=0;exitDx=0;exitDy=0;" edge="1" parent="1" source="byvvLO80dV4j0Tp1s94O-21">
          <mxGeometry width="50" height="50" relative="1" as="geometry">
            <mxPoint x="1034.5" y="-1297" as="sourcePoint" />
            <mxPoint x="884.5" y="-1367" as="targetPoint" />
          </mxGeometry>
        </mxCell>
        <mxCell id="byvvLO80dV4j0Tp1s94O-29" value="&lt;font color=&quot;#ff3333&quot; style=&quot;font-size: 24px;&quot;&gt;SLB&lt;/font&gt;" style="aspect=fixed;html=1;points=[];align=center;image;fontSize=12;image=img/lib/azure2/networking/Load_Balancers.svg;" vertex="1" parent="1">
          <mxGeometry x="1035.5" y="-1314" width="72" height="72" as="geometry" />
        </mxCell>
        <mxCell id="byvvLO80dV4j0Tp1s94O-30" value="" style="endArrow=none;html=1;rounded=0;fontSize=24;fontColor=#FFFFFF;exitX=0;exitY=0.25;exitDx=0;exitDy=0;" edge="1" parent="1" source="byvvLO80dV4j0Tp1s94O-16" target="byvvLO80dV4j0Tp1s94O-7">
          <mxGeometry width="50" height="50" relative="1" as="geometry">
            <mxPoint x="549.5" y="-1069" as="sourcePoint" />
            <mxPoint x="599.5" y="-1119" as="targetPoint" />
          </mxGeometry>
        </mxCell>
        <mxCell id="byvvLO80dV4j0Tp1s94O-32" value="" style="endArrow=none;html=1;rounded=0;fontSize=24;fontColor=#FFFFFF;exitX=1;exitY=0.25;exitDx=0;exitDy=0;" edge="1" parent="1" source="byvvLO80dV4j0Tp1s94O-21" target="byvvLO80dV4j0Tp1s94O-29">
          <mxGeometry width="50" height="50" relative="1" as="geometry">
            <mxPoint x="1035.5" y="-1066" as="sourcePoint" />
            <mxPoint x="1085.5" y="-1116" as="targetPoint" />
          </mxGeometry>
        </mxCell>
        <mxCell id="byvvLO80dV4j0Tp1s94O-34" value="&lt;font style=&quot;font-size: 21px;&quot; color=&quot;#ffffff&quot;&gt;智能双录系统&lt;/font&gt;" style="rounded=0;whiteSpace=wrap;html=1;fontSize=24;fillColor=#e51400;strokeColor=#B20000;fontColor=#ffffff;" vertex="1" parent="1">
          <mxGeometry x="744.5" y="-1353" width="132" height="54" as="geometry" />
        </mxCell>
        <mxCell id="byvvLO80dV4j0Tp1s94O-35" value="&lt;font style=&quot;font-size: 24px;&quot; color=&quot;#ffffff&quot;&gt;本地数据库HA&lt;/font&gt;" style="rounded=1;whiteSpace=wrap;html=1;fontSize=24;fillColor=#60a917;strokeColor=#2D7600;fontColor=#ffffff;" vertex="1" parent="1">
          <mxGeometry x="720.5" y="-929" width="186" height="65" as="geometry" />
        </mxCell>
        <mxCell id="byvvLO80dV4j0Tp1s94O-72" style="edgeStyle=none;rounded=0;orthogonalLoop=1;jettySize=auto;html=1;fontSize=26;fontColor=#FF3333;startArrow=none;startFill=0;endArrow=none;endFill=0;" edge="1" parent="1" source="byvvLO80dV4j0Tp1s94O-36">
          <mxGeometry relative="1" as="geometry">
            <mxPoint x="694" y="-730.3999633789062" as="targetPoint" />
          </mxGeometry>
        </mxCell>
        <mxCell id="byvvLO80dV4j0Tp1s94O-36" value="" style="rounded=1;whiteSpace=wrap;html=1;fontSize=21;fontColor=#FFFFFF;fillColor=default;" vertex="1" parent="1">
          <mxGeometry x="610.5" y="-1091" width="167" height="162" as="geometry" />
        </mxCell>
        <mxCell id="byvvLO80dV4j0Tp1s94O-47" value="" style="verticalAlign=top;verticalLabelPosition=bottom;labelPosition=center;align=center;html=1;outlineConnect=0;fillColor=#48D8E2;strokeColor=#006EAF;gradientDirection=north;strokeWidth=2;shape=mxgraph.networks.server_storage;rounded=0;fontSize=21;fontColor=#ffffff;" vertex="1" parent="1">
          <mxGeometry x="628.5" y="-1037" width="60" height="97" as="geometry" />
        </mxCell>
        <mxCell id="byvvLO80dV4j0Tp1s94O-48" value="" style="verticalAlign=top;verticalLabelPosition=bottom;labelPosition=center;align=center;html=1;outlineConnect=0;fillColor=#48D8E2;strokeColor=#006EAF;gradientDirection=north;strokeWidth=2;shape=mxgraph.networks.server_storage;rounded=0;fontSize=21;fontColor=#ffffff;" vertex="1" parent="1">
          <mxGeometry x="700.5" y="-1037" width="60" height="97" as="geometry" />
        </mxCell>
        <mxCell id="byvvLO80dV4j0Tp1s94O-49" value="&lt;font color=&quot;#ff3333&quot; style=&quot;font-size: 26px;&quot;&gt;X86&lt;/font&gt;" style="text;html=1;strokeColor=none;fillColor=none;align=center;verticalAlign=middle;whiteSpace=wrap;rounded=0;fontSize=21;fontColor=#FFFFFF;" vertex="1" parent="1">
          <mxGeometry x="658" y="-1085" width="78" height="43" as="geometry" />
        </mxCell>
        <mxCell id="byvvLO80dV4j0Tp1s94O-73" style="edgeStyle=none;rounded=0;orthogonalLoop=1;jettySize=auto;html=1;exitX=0.5;exitY=1;exitDx=0;exitDy=0;entryX=0.75;entryY=0;entryDx=0;entryDy=0;fontSize=26;fontColor=#FF3333;startArrow=none;startFill=0;endArrow=none;endFill=0;" edge="1" parent="1" source="byvvLO80dV4j0Tp1s94O-55" target="byvvLO80dV4j0Tp1s94O-63">
          <mxGeometry relative="1" as="geometry" />
        </mxCell>
        <mxCell id="byvvLO80dV4j0Tp1s94O-55" value="" style="rounded=1;whiteSpace=wrap;html=1;fontSize=21;fontColor=#FFFFFF;fillColor=default;" vertex="1" parent="1">
          <mxGeometry x="841.5" y="-1090" width="167" height="162" as="geometry" />
        </mxCell>
        <mxCell id="byvvLO80dV4j0Tp1s94O-56" value="" style="verticalAlign=top;verticalLabelPosition=bottom;labelPosition=center;align=center;html=1;outlineConnect=0;fillColor=#48D8E2;strokeColor=#006EAF;gradientDirection=north;strokeWidth=2;shape=mxgraph.networks.server_storage;rounded=0;fontSize=21;fontColor=#ffffff;" vertex="1" parent="1">
          <mxGeometry x="859.5" y="-1036" width="60" height="97" as="geometry" />
        </mxCell>
        <mxCell id="byvvLO80dV4j0Tp1s94O-57" value="" style="verticalAlign=top;verticalLabelPosition=bottom;labelPosition=center;align=center;html=1;outlineConnect=0;fillColor=#48D8E2;strokeColor=#006EAF;gradientDirection=north;strokeWidth=2;shape=mxgraph.networks.server_storage;rounded=0;fontSize=21;fontColor=#ffffff;" vertex="1" parent="1">
          <mxGeometry x="931.5" y="-1036" width="60" height="97" as="geometry" />
        </mxCell>
        <mxCell id="byvvLO80dV4j0Tp1s94O-58" value="&lt;font color=&quot;#ff3333&quot; style=&quot;font-size: 26px;&quot;&gt;小型机&lt;/font&gt;" style="text;html=1;strokeColor=none;fillColor=none;align=center;verticalAlign=middle;whiteSpace=wrap;rounded=0;fontSize=21;fontColor=#FFFFFF;" vertex="1" parent="1">
          <mxGeometry x="879.5" y="-1085" width="82.5" height="43" as="geometry" />
        </mxCell>
        <mxCell id="byvvLO80dV4j0Tp1s94O-59" style="edgeStyle=none;rounded=0;orthogonalLoop=1;jettySize=auto;html=1;exitX=0.5;exitY=1;exitDx=0;exitDy=0;entryX=0.5;entryY=0;entryDx=0;entryDy=0;fontSize=26;fontColor=#FF3333;startArrow=none;startFill=0;endArrow=none;endFill=0;" edge="1" parent="1" source="byvvLO80dV4j0Tp1s94O-16" target="byvvLO80dV4j0Tp1s94O-49">
          <mxGeometry relative="1" as="geometry" />
        </mxCell>
        <mxCell id="byvvLO80dV4j0Tp1s94O-60" style="edgeStyle=none;rounded=0;orthogonalLoop=1;jettySize=auto;html=1;exitX=0.5;exitY=1;exitDx=0;exitDy=0;entryX=0.5;entryY=0;entryDx=0;entryDy=0;fontSize=26;fontColor=#FF3333;startArrow=none;startFill=0;endArrow=none;endFill=0;" edge="1" parent="1" source="byvvLO80dV4j0Tp1s94O-21" target="byvvLO80dV4j0Tp1s94O-58">
          <mxGeometry relative="1" as="geometry" />
        </mxCell>
        <mxCell id="byvvLO80dV4j0Tp1s94O-71" value="" style="group" vertex="1" connectable="0" parent="1">
          <mxGeometry x="567.5" y="-720" width="473.5" height="313" as="geometry" />
        </mxCell>
        <mxCell id="byvvLO80dV4j0Tp1s94O-40" value="" style="verticalAlign=top;verticalLabelPosition=bottom;labelPosition=center;align=center;html=1;outlineConnect=0;gradientDirection=north;strokeWidth=2;shape=mxgraph.networks.storage;rounded=0;fontSize=21;fillColor=#A9DBFC;gradientColor=#7ea6e0;strokeColor=#6c8ebf;" vertex="1" parent="byvvLO80dV4j0Tp1s94O-71">
          <mxGeometry x="141.5" y="129" width="70" height="84" as="geometry" />
        </mxCell>
        <mxCell id="byvvLO80dV4j0Tp1s94O-67" style="edgeStyle=none;rounded=0;orthogonalLoop=1;jettySize=auto;html=1;exitX=0.9;exitY=1;exitDx=0;exitDy=0;exitPerimeter=0;entryX=0.5;entryY=0;entryDx=0;entryDy=0;entryPerimeter=0;fontSize=26;fontColor=#FF3333;startArrow=none;startFill=0;endArrow=none;endFill=0;" edge="1" parent="byvvLO80dV4j0Tp1s94O-71" source="byvvLO80dV4j0Tp1s94O-44" target="byvvLO80dV4j0Tp1s94O-40">
          <mxGeometry relative="1" as="geometry" />
        </mxCell>
        <mxCell id="byvvLO80dV4j0Tp1s94O-44" value="" style="verticalAlign=top;verticalLabelPosition=bottom;labelPosition=center;align=center;html=1;outlineConnect=0;fillColor=#b1ddf0;strokeColor=#10739e;gradientDirection=north;strokeWidth=2;shape=mxgraph.networks.switch;rounded=0;fontSize=21;" vertex="1" parent="byvvLO80dV4j0Tp1s94O-71">
          <mxGeometry x="27" y="25" width="124" height="30" as="geometry" />
        </mxCell>
        <mxCell id="byvvLO80dV4j0Tp1s94O-45" style="edgeStyle=none;rounded=0;orthogonalLoop=1;jettySize=auto;html=1;exitX=0.5;exitY=1;exitDx=0;exitDy=0;exitPerimeter=0;fontSize=21;fontColor=#FFFFFF;startArrow=none;startFill=0;endArrow=none;endFill=0;" edge="1" parent="byvvLO80dV4j0Tp1s94O-71" source="byvvLO80dV4j0Tp1s94O-44" target="byvvLO80dV4j0Tp1s94O-44">
          <mxGeometry relative="1" as="geometry" />
        </mxCell>
        <mxCell id="byvvLO80dV4j0Tp1s94O-68" style="edgeStyle=none;rounded=0;orthogonalLoop=1;jettySize=auto;html=1;exitX=0.5;exitY=1;exitDx=0;exitDy=0;exitPerimeter=0;entryX=0.5;entryY=0;entryDx=0;entryDy=0;entryPerimeter=0;fontSize=26;fontColor=#FF3333;startArrow=none;startFill=0;endArrow=none;endFill=0;" edge="1" parent="byvvLO80dV4j0Tp1s94O-71" source="byvvLO80dV4j0Tp1s94O-46" target="byvvLO80dV4j0Tp1s94O-40">
          <mxGeometry relative="1" as="geometry" />
        </mxCell>
        <mxCell id="byvvLO80dV4j0Tp1s94O-46" value="" style="verticalAlign=top;verticalLabelPosition=bottom;labelPosition=center;align=center;html=1;outlineConnect=0;fillColor=#b1ddf0;strokeColor=#10739e;gradientDirection=north;strokeWidth=2;shape=mxgraph.networks.switch;rounded=0;fontSize=21;" vertex="1" parent="byvvLO80dV4j0Tp1s94O-71">
          <mxGeometry x="328" y="25" width="124" height="30" as="geometry" />
        </mxCell>
        <mxCell id="byvvLO80dV4j0Tp1s94O-54" value="&lt;font style=&quot;font-size: 24px;&quot; color=&quot;#ffffff&quot;&gt;生成存储&lt;/font&gt;" style="rounded=1;whiteSpace=wrap;html=1;fontSize=24;fillColor=#7A7A7A;strokeColor=#36393d;" vertex="1" parent="byvvLO80dV4j0Tp1s94O-71">
          <mxGeometry x="146.39" y="237" width="170" height="53" as="geometry" />
        </mxCell>
        <mxCell id="byvvLO80dV4j0Tp1s94O-61" value="&lt;font color=&quot;#ff3333&quot; style=&quot;font-size: 26px;&quot;&gt;Switch&lt;/font&gt;" style="text;html=1;strokeColor=none;fillColor=none;align=center;verticalAlign=middle;whiteSpace=wrap;rounded=0;fontSize=21;fontColor=#FFFFFF;" vertex="1" parent="byvvLO80dV4j0Tp1s94O-71">
          <mxGeometry x="151.5" y="5" width="123" height="53" as="geometry" />
        </mxCell>
        <mxCell id="byvvLO80dV4j0Tp1s94O-63" value="" style="rounded=1;whiteSpace=wrap;html=1;fillColor=none;" vertex="1" parent="byvvLO80dV4j0Tp1s94O-71">
          <mxGeometry width="473.5" height="313" as="geometry" />
        </mxCell>
        <mxCell id="byvvLO80dV4j0Tp1s94O-66" value="" style="verticalAlign=top;verticalLabelPosition=bottom;labelPosition=center;align=center;html=1;outlineConnect=0;gradientDirection=north;strokeWidth=2;shape=mxgraph.networks.storage;rounded=0;fontSize=21;fillColor=#A9DBFC;gradientColor=#7ea6e0;strokeColor=#6c8ebf;" vertex="1" parent="byvvLO80dV4j0Tp1s94O-71">
          <mxGeometry x="256.5" y="125" width="70" height="84" as="geometry" />
        </mxCell>
        <mxCell id="byvvLO80dV4j0Tp1s94O-69" style="edgeStyle=none;rounded=0;orthogonalLoop=1;jettySize=auto;html=1;exitX=0.9;exitY=1;exitDx=0;exitDy=0;exitPerimeter=0;entryX=0.5;entryY=0;entryDx=0;entryDy=0;entryPerimeter=0;fontSize=26;fontColor=#FF3333;startArrow=none;startFill=0;endArrow=none;endFill=0;" edge="1" parent="byvvLO80dV4j0Tp1s94O-71" source="byvvLO80dV4j0Tp1s94O-44" target="byvvLO80dV4j0Tp1s94O-66">
          <mxGeometry relative="1" as="geometry" />
        </mxCell>
        <mxCell id="byvvLO80dV4j0Tp1s94O-70" style="edgeStyle=none;rounded=0;orthogonalLoop=1;jettySize=auto;html=1;exitX=0.5;exitY=1;exitDx=0;exitDy=0;exitPerimeter=0;entryX=0.5;entryY=0;entryDx=0;entryDy=0;entryPerimeter=0;fontSize=26;fontColor=#FF3333;startArrow=none;startFill=0;endArrow=none;endFill=0;" edge="1" parent="byvvLO80dV4j0Tp1s94O-71" source="byvvLO80dV4j0Tp1s94O-46" target="byvvLO80dV4j0Tp1s94O-66">
          <mxGeometry relative="1" as="geometry" />
        </mxCell>
        <mxCell id="byvvLO80dV4j0Tp1s94O-127" value="" style="rounded=1;whiteSpace=wrap;html=1;fillColor=#eeeeee;strokeColor=#36393d;" vertex="1" parent="1">
          <mxGeometry x="1254" y="-1497" width="627" height="1164" as="geometry" />
        </mxCell>
        <mxCell id="byvvLO80dV4j0Tp1s94O-128" style="edgeStyle=none;rounded=0;orthogonalLoop=1;jettySize=auto;html=1;fontSize=26;fontColor=#FF3333;startArrow=none;startFill=0;endArrow=none;endFill=0;" edge="1" parent="1" source="byvvLO80dV4j0Tp1s94O-130">
          <mxGeometry relative="1" as="geometry">
            <mxPoint x="1458.5" y="-811" as="targetPoint" />
          </mxGeometry>
        </mxCell>
        <mxCell id="byvvLO80dV4j0Tp1s94O-129" style="edgeStyle=none;rounded=0;orthogonalLoop=1;jettySize=auto;html=1;fontSize=26;fontColor=#FF3333;startArrow=none;startFill=0;endArrow=none;endFill=0;" edge="1" parent="1" source="byvvLO80dV4j0Tp1s94O-130">
          <mxGeometry relative="1" as="geometry">
            <mxPoint x="1687.0999755859375" y="-810.815" as="targetPoint" />
          </mxGeometry>
        </mxCell>
        <mxCell id="byvvLO80dV4j0Tp1s94O-130" value="&lt;font color=&quot;#ff3333&quot; style=&quot;font-size: 26px;&quot;&gt;redis集群&lt;/font&gt;" style="aspect=fixed;html=1;points=[];align=center;image;fontSize=12;image=img/lib/azure2/databases/Cache_Redis.svg;" vertex="1" parent="1">
          <mxGeometry x="1523.12" y="-852" width="101.38" height="82.37" as="geometry" />
        </mxCell>
        <mxCell id="byvvLO80dV4j0Tp1s94O-131" value="" style="aspect=fixed;html=1;points=[];align=center;image;fontSize=12;image=img/lib/azure2/networking/DNS_Zones.svg;" vertex="1" parent="1">
          <mxGeometry x="1321" y="-1463" width="64" height="64" as="geometry" />
        </mxCell>
        <mxCell id="byvvLO80dV4j0Tp1s94O-132" value="" style="aspect=fixed;html=1;points=[];align=center;image;fontSize=12;image=img/lib/azure2/networking/Application_Gateways.svg;" vertex="1" parent="1">
          <mxGeometry x="1455.5" y="-1431" width="64" height="64" as="geometry" />
        </mxCell>
        <mxCell id="byvvLO80dV4j0Tp1s94O-133" value="&lt;font color=&quot;#ff3333&quot; style=&quot;font-size: 24px;&quot;&gt;SLB&lt;/font&gt;" style="aspect=fixed;html=1;points=[];align=center;image;fontSize=12;image=img/lib/azure2/networking/Load_Balancers.svg;" vertex="1" parent="1">
          <mxGeometry x="1260.5" y="-1325" width="72" height="72" as="geometry" />
        </mxCell>
        <mxCell id="byvvLO80dV4j0Tp1s94O-134" value="" style="rounded=0;orthogonalLoop=1;jettySize=auto;html=1;fontSize=24;fontColor=#FF3333;startArrow=none;startFill=0;endArrow=none;endFill=0;" edge="1" parent="1" source="byvvLO80dV4j0Tp1s94O-135" target="byvvLO80dV4j0Tp1s94O-132">
          <mxGeometry relative="1" as="geometry" />
        </mxCell>
        <mxCell id="byvvLO80dV4j0Tp1s94O-135" value="" style="aspect=fixed;html=1;points=[];align=center;image;fontSize=12;image=img/lib/azure2/networking/Application_Gateways.svg;" vertex="1" parent="1">
          <mxGeometry x="1617.5" y="-1431" width="64" height="64" as="geometry" />
        </mxCell>
        <mxCell id="byvvLO80dV4j0Tp1s94O-136" value="" style="group" vertex="1" connectable="0" parent="1">
          <mxGeometry x="1381.5" y="-1297" width="161" height="142" as="geometry" />
        </mxCell>
        <mxCell id="byvvLO80dV4j0Tp1s94O-137" value="" style="verticalAlign=top;verticalLabelPosition=bottom;labelPosition=center;align=center;html=1;outlineConnect=0;fillColor=#42B8FC;strokeColor=#6c8ebf;gradientDirection=north;strokeWidth=2;shape=mxgraph.networks.server;fontSize=24;" vertex="1" parent="byvvLO80dV4j0Tp1s94O-136">
          <mxGeometry x="14" y="28" width="58" height="94" as="geometry" />
        </mxCell>
        <mxCell id="byvvLO80dV4j0Tp1s94O-138" value="" style="verticalAlign=top;verticalLabelPosition=bottom;labelPosition=center;align=center;html=1;outlineConnect=0;fillColor=#42B8FC;strokeColor=#6c8ebf;gradientDirection=north;strokeWidth=2;shape=mxgraph.networks.server;fontSize=24;" vertex="1" parent="byvvLO80dV4j0Tp1s94O-136">
          <mxGeometry x="88" y="28" width="58" height="94" as="geometry" />
        </mxCell>
        <mxCell id="byvvLO80dV4j0Tp1s94O-139" value="" style="rounded=1;whiteSpace=wrap;html=1;fontSize=24;fontColor=#FF3333;fillColor=none;" vertex="1" parent="byvvLO80dV4j0Tp1s94O-136">
          <mxGeometry width="161" height="142" as="geometry" />
        </mxCell>
        <mxCell id="byvvLO80dV4j0Tp1s94O-140" value="" style="group" vertex="1" connectable="0" parent="1">
          <mxGeometry x="1606.5" y="-1297" width="161" height="142" as="geometry" />
        </mxCell>
        <mxCell id="byvvLO80dV4j0Tp1s94O-141" value="" style="verticalAlign=top;verticalLabelPosition=bottom;labelPosition=center;align=center;html=1;outlineConnect=0;fillColor=#42B8FC;strokeColor=#6c8ebf;gradientDirection=north;strokeWidth=2;shape=mxgraph.networks.server;fontSize=24;" vertex="1" parent="byvvLO80dV4j0Tp1s94O-140">
          <mxGeometry x="14" y="28" width="58" height="94" as="geometry" />
        </mxCell>
        <mxCell id="byvvLO80dV4j0Tp1s94O-142" value="" style="verticalAlign=top;verticalLabelPosition=bottom;labelPosition=center;align=center;html=1;outlineConnect=0;fillColor=#42B8FC;strokeColor=#6c8ebf;gradientDirection=north;strokeWidth=2;shape=mxgraph.networks.server;fontSize=24;" vertex="1" parent="byvvLO80dV4j0Tp1s94O-140">
          <mxGeometry x="88" y="28" width="58" height="94" as="geometry" />
        </mxCell>
        <mxCell id="byvvLO80dV4j0Tp1s94O-143" value="" style="rounded=1;whiteSpace=wrap;html=1;fontSize=24;fontColor=#FF3333;fillColor=none;" vertex="1" parent="byvvLO80dV4j0Tp1s94O-140">
          <mxGeometry width="161" height="142" as="geometry" />
        </mxCell>
        <mxCell id="byvvLO80dV4j0Tp1s94O-144" value="&lt;font style=&quot;font-size: 24px;&quot; color=&quot;#ffffff&quot;&gt;应用集群&lt;/font&gt;" style="rounded=1;whiteSpace=wrap;html=1;fontSize=24;fillColor=#f0a30a;strokeColor=#BD7000;fontColor=#000000;" vertex="1" parent="1">
          <mxGeometry x="1491.5" y="-1259.5" width="196" height="67" as="geometry" />
        </mxCell>
        <mxCell id="byvvLO80dV4j0Tp1s94O-145" value="" style="endArrow=none;html=1;rounded=0;fontSize=24;fontColor=#FFFFFF;" edge="1" parent="1" source="byvvLO80dV4j0Tp1s94O-131">
          <mxGeometry width="50" height="50" relative="1" as="geometry">
            <mxPoint x="1386.5" y="-1353" as="sourcePoint" />
            <mxPoint x="1455.5" y="-1399" as="targetPoint" />
          </mxGeometry>
        </mxCell>
        <mxCell id="byvvLO80dV4j0Tp1s94O-146" value="" style="endArrow=none;html=1;rounded=0;fontSize=24;fontColor=#FFFFFF;exitX=0.5;exitY=0;exitDx=0;exitDy=0;entryX=0.438;entryY=1;entryDx=0;entryDy=0;entryPerimeter=0;" edge="1" parent="1" source="byvvLO80dV4j0Tp1s94O-139" target="byvvLO80dV4j0Tp1s94O-132">
          <mxGeometry width="50" height="50" relative="1" as="geometry">
            <mxPoint x="1347.5" y="-1352" as="sourcePoint" />
            <mxPoint x="1500.5" y="-1354" as="targetPoint" />
          </mxGeometry>
        </mxCell>
        <mxCell id="byvvLO80dV4j0Tp1s94O-147" value="" style="endArrow=none;html=1;rounded=0;fontSize=24;fontColor=#FFFFFF;exitX=0.5;exitY=0;exitDx=0;exitDy=0;" edge="1" parent="1" source="byvvLO80dV4j0Tp1s94O-143">
          <mxGeometry width="50" height="50" relative="1" as="geometry">
            <mxPoint x="1799.5" y="-1308" as="sourcePoint" />
            <mxPoint x="1649.5" y="-1378" as="targetPoint" />
          </mxGeometry>
        </mxCell>
        <mxCell id="byvvLO80dV4j0Tp1s94O-148" value="&lt;font color=&quot;#ff3333&quot; style=&quot;font-size: 24px;&quot;&gt;SLB&lt;/font&gt;" style="aspect=fixed;html=1;points=[];align=center;image;fontSize=12;image=img/lib/azure2/networking/Load_Balancers.svg;" vertex="1" parent="1">
          <mxGeometry x="1800.5" y="-1325" width="72" height="72" as="geometry" />
        </mxCell>
        <mxCell id="byvvLO80dV4j0Tp1s94O-149" value="" style="endArrow=none;html=1;rounded=0;fontSize=24;fontColor=#FFFFFF;exitX=0;exitY=0.25;exitDx=0;exitDy=0;" edge="1" parent="1" source="byvvLO80dV4j0Tp1s94O-139" target="byvvLO80dV4j0Tp1s94O-133">
          <mxGeometry width="50" height="50" relative="1" as="geometry">
            <mxPoint x="1314.5" y="-1080" as="sourcePoint" />
            <mxPoint x="1364.5" y="-1130" as="targetPoint" />
          </mxGeometry>
        </mxCell>
        <mxCell id="byvvLO80dV4j0Tp1s94O-150" value="" style="endArrow=none;html=1;rounded=0;fontSize=24;fontColor=#FFFFFF;exitX=1;exitY=0.25;exitDx=0;exitDy=0;" edge="1" parent="1" source="byvvLO80dV4j0Tp1s94O-143" target="byvvLO80dV4j0Tp1s94O-148">
          <mxGeometry width="50" height="50" relative="1" as="geometry">
            <mxPoint x="1800.5" y="-1077" as="sourcePoint" />
            <mxPoint x="1850.5" y="-1127" as="targetPoint" />
          </mxGeometry>
        </mxCell>
        <mxCell id="byvvLO80dV4j0Tp1s94O-151" value="&lt;font style=&quot;font-size: 21px;&quot; color=&quot;#ffffff&quot;&gt;智能双录系统&lt;/font&gt;" style="rounded=0;whiteSpace=wrap;html=1;fontSize=24;fillColor=#e51400;strokeColor=#B20000;fontColor=#ffffff;" vertex="1" parent="1">
          <mxGeometry x="1509.5" y="-1364" width="132" height="54" as="geometry" />
        </mxCell>
        <mxCell id="byvvLO80dV4j0Tp1s94O-152" value="&lt;font style=&quot;font-size: 24px;&quot; color=&quot;#ffffff&quot;&gt;本地数据库HA&lt;/font&gt;" style="rounded=1;whiteSpace=wrap;html=1;fontSize=24;fillColor=#60a917;strokeColor=#2D7600;fontColor=#ffffff;" vertex="1" parent="1">
          <mxGeometry x="1485.5" y="-940" width="186" height="65" as="geometry" />
        </mxCell>
        <mxCell id="byvvLO80dV4j0Tp1s94O-153" style="edgeStyle=none;rounded=0;orthogonalLoop=1;jettySize=auto;html=1;fontSize=26;fontColor=#FF3333;startArrow=none;startFill=0;endArrow=none;endFill=0;" edge="1" parent="1" source="byvvLO80dV4j0Tp1s94O-154">
          <mxGeometry relative="1" as="geometry">
            <mxPoint x="1459" y="-741.3999633789062" as="targetPoint" />
          </mxGeometry>
        </mxCell>
        <mxCell id="byvvLO80dV4j0Tp1s94O-154" value="" style="rounded=1;whiteSpace=wrap;html=1;fontSize=21;fontColor=#FFFFFF;fillColor=default;" vertex="1" parent="1">
          <mxGeometry x="1375.5" y="-1102" width="167" height="162" as="geometry" />
        </mxCell>
        <mxCell id="byvvLO80dV4j0Tp1s94O-155" value="" style="verticalAlign=top;verticalLabelPosition=bottom;labelPosition=center;align=center;html=1;outlineConnect=0;fillColor=#48D8E2;strokeColor=#006EAF;gradientDirection=north;strokeWidth=2;shape=mxgraph.networks.server_storage;rounded=0;fontSize=21;fontColor=#ffffff;" vertex="1" parent="1">
          <mxGeometry x="1393.5" y="-1048" width="60" height="97" as="geometry" />
        </mxCell>
        <mxCell id="byvvLO80dV4j0Tp1s94O-156" value="" style="verticalAlign=top;verticalLabelPosition=bottom;labelPosition=center;align=center;html=1;outlineConnect=0;fillColor=#48D8E2;strokeColor=#006EAF;gradientDirection=north;strokeWidth=2;shape=mxgraph.networks.server_storage;rounded=0;fontSize=21;fontColor=#ffffff;" vertex="1" parent="1">
          <mxGeometry x="1465.5" y="-1048" width="60" height="97" as="geometry" />
        </mxCell>
        <mxCell id="byvvLO80dV4j0Tp1s94O-157" value="&lt;font color=&quot;#ff3333&quot; style=&quot;font-size: 26px;&quot;&gt;X86&lt;/font&gt;" style="text;html=1;strokeColor=none;fillColor=none;align=center;verticalAlign=middle;whiteSpace=wrap;rounded=0;fontSize=21;fontColor=#FFFFFF;" vertex="1" parent="1">
          <mxGeometry x="1423" y="-1096" width="78" height="43" as="geometry" />
        </mxCell>
        <mxCell id="byvvLO80dV4j0Tp1s94O-158" style="edgeStyle=none;rounded=0;orthogonalLoop=1;jettySize=auto;html=1;exitX=0.5;exitY=1;exitDx=0;exitDy=0;entryX=0.75;entryY=0;entryDx=0;entryDy=0;fontSize=26;fontColor=#FF3333;startArrow=none;startFill=0;endArrow=none;endFill=0;" edge="1" parent="1" source="byvvLO80dV4j0Tp1s94O-159" target="byvvLO80dV4j0Tp1s94O-174">
          <mxGeometry relative="1" as="geometry" />
        </mxCell>
        <mxCell id="byvvLO80dV4j0Tp1s94O-159" value="" style="rounded=1;whiteSpace=wrap;html=1;fontSize=21;fontColor=#FFFFFF;fillColor=default;" vertex="1" parent="1">
          <mxGeometry x="1606.5" y="-1101" width="167" height="162" as="geometry" />
        </mxCell>
        <mxCell id="byvvLO80dV4j0Tp1s94O-160" value="" style="verticalAlign=top;verticalLabelPosition=bottom;labelPosition=center;align=center;html=1;outlineConnect=0;fillColor=#48D8E2;strokeColor=#006EAF;gradientDirection=north;strokeWidth=2;shape=mxgraph.networks.server_storage;rounded=0;fontSize=21;fontColor=#ffffff;" vertex="1" parent="1">
          <mxGeometry x="1624.5" y="-1047" width="60" height="97" as="geometry" />
        </mxCell>
        <mxCell id="byvvLO80dV4j0Tp1s94O-161" value="" style="verticalAlign=top;verticalLabelPosition=bottom;labelPosition=center;align=center;html=1;outlineConnect=0;fillColor=#48D8E2;strokeColor=#006EAF;gradientDirection=north;strokeWidth=2;shape=mxgraph.networks.server_storage;rounded=0;fontSize=21;fontColor=#ffffff;" vertex="1" parent="1">
          <mxGeometry x="1696.5" y="-1047" width="60" height="97" as="geometry" />
        </mxCell>
        <mxCell id="byvvLO80dV4j0Tp1s94O-162" value="&lt;font color=&quot;#ff3333&quot; style=&quot;font-size: 26px;&quot;&gt;小型机&lt;/font&gt;" style="text;html=1;strokeColor=none;fillColor=none;align=center;verticalAlign=middle;whiteSpace=wrap;rounded=0;fontSize=21;fontColor=#FFFFFF;" vertex="1" parent="1">
          <mxGeometry x="1644.5" y="-1096" width="82.5" height="43" as="geometry" />
        </mxCell>
        <mxCell id="byvvLO80dV4j0Tp1s94O-163" style="edgeStyle=none;rounded=0;orthogonalLoop=1;jettySize=auto;html=1;exitX=0.5;exitY=1;exitDx=0;exitDy=0;entryX=0.5;entryY=0;entryDx=0;entryDy=0;fontSize=26;fontColor=#FF3333;startArrow=none;startFill=0;endArrow=none;endFill=0;" edge="1" parent="1" source="byvvLO80dV4j0Tp1s94O-139" target="byvvLO80dV4j0Tp1s94O-157">
          <mxGeometry relative="1" as="geometry" />
        </mxCell>
        <mxCell id="byvvLO80dV4j0Tp1s94O-164" style="edgeStyle=none;rounded=0;orthogonalLoop=1;jettySize=auto;html=1;exitX=0.5;exitY=1;exitDx=0;exitDy=0;entryX=0.5;entryY=0;entryDx=0;entryDy=0;fontSize=26;fontColor=#FF3333;startArrow=none;startFill=0;endArrow=none;endFill=0;" edge="1" parent="1" source="byvvLO80dV4j0Tp1s94O-143" target="byvvLO80dV4j0Tp1s94O-162">
          <mxGeometry relative="1" as="geometry" />
        </mxCell>
        <mxCell id="byvvLO80dV4j0Tp1s94O-165" value="" style="group" vertex="1" connectable="0" parent="1">
          <mxGeometry x="1332.5" y="-731" width="473.5" height="313" as="geometry" />
        </mxCell>
        <mxCell id="byvvLO80dV4j0Tp1s94O-166" value="" style="verticalAlign=top;verticalLabelPosition=bottom;labelPosition=center;align=center;html=1;outlineConnect=0;gradientDirection=north;strokeWidth=2;shape=mxgraph.networks.storage;rounded=0;fontSize=21;fillColor=#A9DBFC;gradientColor=#7ea6e0;strokeColor=#6c8ebf;" vertex="1" parent="byvvLO80dV4j0Tp1s94O-165">
          <mxGeometry x="141.5" y="129" width="70" height="84" as="geometry" />
        </mxCell>
        <mxCell id="byvvLO80dV4j0Tp1s94O-167" style="edgeStyle=none;rounded=0;orthogonalLoop=1;jettySize=auto;html=1;exitX=0.9;exitY=1;exitDx=0;exitDy=0;exitPerimeter=0;entryX=0.5;entryY=0;entryDx=0;entryDy=0;entryPerimeter=0;fontSize=26;fontColor=#FF3333;startArrow=none;startFill=0;endArrow=none;endFill=0;" edge="1" parent="byvvLO80dV4j0Tp1s94O-165" source="byvvLO80dV4j0Tp1s94O-168" target="byvvLO80dV4j0Tp1s94O-166">
          <mxGeometry relative="1" as="geometry" />
        </mxCell>
        <mxCell id="byvvLO80dV4j0Tp1s94O-168" value="" style="verticalAlign=top;verticalLabelPosition=bottom;labelPosition=center;align=center;html=1;outlineConnect=0;fillColor=#b1ddf0;strokeColor=#10739e;gradientDirection=north;strokeWidth=2;shape=mxgraph.networks.switch;rounded=0;fontSize=21;" vertex="1" parent="byvvLO80dV4j0Tp1s94O-165">
          <mxGeometry x="27" y="25" width="124" height="30" as="geometry" />
        </mxCell>
        <mxCell id="byvvLO80dV4j0Tp1s94O-169" style="edgeStyle=none;rounded=0;orthogonalLoop=1;jettySize=auto;html=1;exitX=0.5;exitY=1;exitDx=0;exitDy=0;exitPerimeter=0;fontSize=21;fontColor=#FFFFFF;startArrow=none;startFill=0;endArrow=none;endFill=0;" edge="1" parent="byvvLO80dV4j0Tp1s94O-165" source="byvvLO80dV4j0Tp1s94O-168" target="byvvLO80dV4j0Tp1s94O-168">
          <mxGeometry relative="1" as="geometry" />
        </mxCell>
        <mxCell id="byvvLO80dV4j0Tp1s94O-170" style="edgeStyle=none;rounded=0;orthogonalLoop=1;jettySize=auto;html=1;exitX=0.5;exitY=1;exitDx=0;exitDy=0;exitPerimeter=0;entryX=0.5;entryY=0;entryDx=0;entryDy=0;entryPerimeter=0;fontSize=26;fontColor=#FF3333;startArrow=none;startFill=0;endArrow=none;endFill=0;" edge="1" parent="byvvLO80dV4j0Tp1s94O-165" source="byvvLO80dV4j0Tp1s94O-171" target="byvvLO80dV4j0Tp1s94O-166">
          <mxGeometry relative="1" as="geometry" />
        </mxCell>
        <mxCell id="byvvLO80dV4j0Tp1s94O-171" value="" style="verticalAlign=top;verticalLabelPosition=bottom;labelPosition=center;align=center;html=1;outlineConnect=0;fillColor=#b1ddf0;strokeColor=#10739e;gradientDirection=north;strokeWidth=2;shape=mxgraph.networks.switch;rounded=0;fontSize=21;" vertex="1" parent="byvvLO80dV4j0Tp1s94O-165">
          <mxGeometry x="328" y="25" width="124" height="30" as="geometry" />
        </mxCell>
        <mxCell id="byvvLO80dV4j0Tp1s94O-172" value="&lt;font style=&quot;font-size: 24px;&quot; color=&quot;#ffffff&quot;&gt;生成存储&lt;/font&gt;" style="rounded=1;whiteSpace=wrap;html=1;fontSize=24;fillColor=#7A7A7A;strokeColor=#36393d;" vertex="1" parent="byvvLO80dV4j0Tp1s94O-165">
          <mxGeometry x="146.39" y="237" width="170" height="53" as="geometry" />
        </mxCell>
        <mxCell id="byvvLO80dV4j0Tp1s94O-173" value="&lt;font color=&quot;#ff3333&quot; style=&quot;font-size: 26px;&quot;&gt;Switch&lt;/font&gt;" style="text;html=1;strokeColor=none;fillColor=none;align=center;verticalAlign=middle;whiteSpace=wrap;rounded=0;fontSize=21;fontColor=#FFFFFF;" vertex="1" parent="byvvLO80dV4j0Tp1s94O-165">
          <mxGeometry x="151.5" y="5" width="123" height="53" as="geometry" />
        </mxCell>
        <mxCell id="byvvLO80dV4j0Tp1s94O-174" value="" style="rounded=1;whiteSpace=wrap;html=1;fillColor=none;" vertex="1" parent="byvvLO80dV4j0Tp1s94O-165">
          <mxGeometry width="473.5" height="313" as="geometry" />
        </mxCell>
        <mxCell id="byvvLO80dV4j0Tp1s94O-175" value="" style="verticalAlign=top;verticalLabelPosition=bottom;labelPosition=center;align=center;html=1;outlineConnect=0;gradientDirection=north;strokeWidth=2;shape=mxgraph.networks.storage;rounded=0;fontSize=21;fillColor=#A9DBFC;gradientColor=#7ea6e0;strokeColor=#6c8ebf;" vertex="1" parent="byvvLO80dV4j0Tp1s94O-165">
          <mxGeometry x="256.5" y="125" width="70" height="84" as="geometry" />
        </mxCell>
        <mxCell id="byvvLO80dV4j0Tp1s94O-176" style="edgeStyle=none;rounded=0;orthogonalLoop=1;jettySize=auto;html=1;exitX=0.9;exitY=1;exitDx=0;exitDy=0;exitPerimeter=0;entryX=0.5;entryY=0;entryDx=0;entryDy=0;entryPerimeter=0;fontSize=26;fontColor=#FF3333;startArrow=none;startFill=0;endArrow=none;endFill=0;" edge="1" parent="byvvLO80dV4j0Tp1s94O-165" source="byvvLO80dV4j0Tp1s94O-168" target="byvvLO80dV4j0Tp1s94O-175">
          <mxGeometry relative="1" as="geometry" />
        </mxCell>
        <mxCell id="byvvLO80dV4j0Tp1s94O-177" style="edgeStyle=none;rounded=0;orthogonalLoop=1;jettySize=auto;html=1;exitX=0.5;exitY=1;exitDx=0;exitDy=0;exitPerimeter=0;entryX=0.5;entryY=0;entryDx=0;entryDy=0;entryPerimeter=0;fontSize=26;fontColor=#FF3333;startArrow=none;startFill=0;endArrow=none;endFill=0;" edge="1" parent="byvvLO80dV4j0Tp1s94O-165" source="byvvLO80dV4j0Tp1s94O-171" target="byvvLO80dV4j0Tp1s94O-175">
          <mxGeometry relative="1" as="geometry" />
        </mxCell>
        <mxCell id="byvvLO80dV4j0Tp1s94O-8" value="" style="aspect=fixed;html=1;points=[];align=center;image;fontSize=12;image=img/lib/azure2/networking/Application_Gateways.svg;" vertex="1" parent="1">
          <mxGeometry x="849.5" y="-1431" width="64" height="64" as="geometry" />
        </mxCell>
        <mxCell id="byvvLO80dV4j0Tp1s94O-180" value="" style="endArrow=none;html=1;rounded=0;fontSize=24;fontColor=#FFFFFF;" edge="1" parent="1" target="byvvLO80dV4j0Tp1s94O-8">
          <mxGeometry width="50" height="50" relative="1" as="geometry">
            <mxPoint x="910.5" y="-1366" as="sourcePoint" />
            <mxPoint x="979.5" y="-1412" as="targetPoint" />
          </mxGeometry>
        </mxCell>
        <mxCell id="byvvLO80dV4j0Tp1s94O-181" value="&lt;font color=&quot;#ff3333&quot; style=&quot;font-size: 26px;&quot;&gt;&lt;b&gt;容灾切换&lt;br&gt;平台&lt;/b&gt;&lt;/font&gt;" style="ellipse;whiteSpace=wrap;html=1;rounded=0;fontSize=36;fontColor=#000000;strokeWidth=2;fillColor=#e3c800;strokeColor=#B09500;" vertex="1" parent="1">
          <mxGeometry x="1120" y="-1359" width="138" height="98" as="geometry" />
        </mxCell>
        <mxCell id="byvvLO80dV4j0Tp1s94O-186" value="&lt;b&gt;&lt;font color=&quot;#ff3333&quot; style=&quot;font-size: 28px;&quot;&gt;数据库异步复制&lt;/font&gt;&lt;/b&gt;" style="shape=singleArrow;whiteSpace=wrap;html=1;rounded=0;fontSize=26;fontColor=#000000;strokeWidth=2;fillColor=#f0a30a;strokeColor=#BD7000;" vertex="1" parent="1">
          <mxGeometry x="1012" y="-1045" width="361" height="86" as="geometry" />
        </mxCell>
        <mxCell id="byvvLO80dV4j0Tp1s94O-188" value="" style="shape=flexArrow;endArrow=classic;html=1;rounded=0;fontSize=28;fontColor=#FF3333;entryX=0.5;entryY=0;entryDx=0;entryDy=0;fillColor=#60a917;strokeColor=#2D7600;" edge="1" parent="1" target="byvvLO80dV4j0Tp1s94O-35">
          <mxGeometry width="50" height="50" relative="1" as="geometry">
            <mxPoint x="814" y="-1181" as="sourcePoint" />
            <mxPoint x="253" y="-779" as="targetPoint" />
          </mxGeometry>
        </mxCell>
        <mxCell id="byvvLO80dV4j0Tp1s94O-189" value="" style="shape=flexArrow;endArrow=classic;html=1;rounded=0;fontSize=28;fontColor=#FF3333;entryX=0.5;entryY=0;entryDx=0;entryDy=0;exitX=0.5;exitY=1;exitDx=0;exitDy=0;fillColor=#60a917;strokeColor=#2D7600;" edge="1" parent="1" source="byvvLO80dV4j0Tp1s94O-144" target="byvvLO80dV4j0Tp1s94O-35">
          <mxGeometry width="50" height="50" relative="1" as="geometry">
            <mxPoint x="1235" y="-1113" as="sourcePoint" />
            <mxPoint x="1106" y="-933" as="targetPoint" />
          </mxGeometry>
        </mxCell>
        <mxCell id="byvvLO80dV4j0Tp1s94O-190" value="&lt;b&gt;&lt;font style=&quot;font-size: 30px;&quot;&gt;滨江生产主中心&lt;/font&gt;&lt;/b&gt;" style="text;html=1;strokeColor=none;fillColor=none;align=center;verticalAlign=middle;whiteSpace=wrap;rounded=0;fontSize=28;fontColor=#FF3333;" vertex="1" parent="1">
          <mxGeometry x="658" y="-397" width="273" height="48" as="geometry" />
        </mxCell>
        <mxCell id="byvvLO80dV4j0Tp1s94O-191" value="&lt;b&gt;&lt;font style=&quot;font-size: 30px;&quot;&gt;望城同城中心&lt;/font&gt;&lt;/b&gt;" style="text;html=1;strokeColor=none;fillColor=none;align=center;verticalAlign=middle;whiteSpace=wrap;rounded=0;fontSize=28;fontColor=#FF3333;" vertex="1" parent="1">
          <mxGeometry x="1432.75" y="-397" width="273" height="48" as="geometry" />
        </mxCell>
        <mxCell id="byvvLO80dV4j0Tp1s94O-192" value="" style="rounded=1;whiteSpace=wrap;html=1;fontSize=30;fontColor=#FF3333;strokeWidth=2;fillColor=none;dashed=1;" vertex="1" parent="1">
          <mxGeometry x="967" y="-257" width="472" height="161" as="geometry" />
        </mxCell>
        <mxCell id="byvvLO80dV4j0Tp1s94O-193" value="&lt;font style=&quot;font-size: 24px;&quot; color=&quot;#ffffff&quot;&gt;&lt;b&gt;异地灾备&lt;/b&gt;&lt;/font&gt;" style="rounded=1;whiteSpace=wrap;html=1;fontSize=24;fillColor=#f0a30a;strokeColor=#BD7000;fontColor=#000000;" vertex="1" parent="1">
          <mxGeometry x="1056" y="-242" width="273" height="70" as="geometry" />
        </mxCell>
        <mxCell id="byvvLO80dV4j0Tp1s94O-194" value="&lt;b&gt;&lt;font color=&quot;#000000&quot; style=&quot;font-size: 30px;&quot;&gt;东江湖异地灾备中心&lt;/font&gt;&lt;/b&gt;" style="text;html=1;strokeColor=none;fillColor=none;align=center;verticalAlign=middle;whiteSpace=wrap;rounded=0;fontSize=28;fontColor=#FF3333;" vertex="1" parent="1">
          <mxGeometry x="1052.5" y="-158" width="273" height="48" as="geometry" />
        </mxCell>
        <mxCell id="byvvLO80dV4j0Tp1s94O-197" value="" style="shape=flexArrow;endArrow=classic;html=1;rounded=0;fontSize=30;fontColor=#000000;width=28;endSize=30.12;entryX=0.395;entryY=0.007;entryDx=0;entryDy=0;entryPerimeter=0;exitX=0.75;exitY=1;exitDx=0;exitDy=0;endWidth=48;fillColor=#39BAE2;strokeColor=#006EAF;" edge="1" parent="1" source="byvvLO80dV4j0Tp1s94O-55" target="byvvLO80dV4j0Tp1s94O-192">
          <mxGeometry width="50" height="50" relative="1" as="geometry">
            <mxPoint x="1040" y="-824" as="sourcePoint" />
            <mxPoint x="1090" y="-874" as="targetPoint" />
          </mxGeometry>
        </mxCell>
        <mxCell id="byvvLO80dV4j0Tp1s94O-198" value="&lt;b style=&quot;font-size: 26px; background-color: rgb(248, 249, 250);&quot;&gt;&lt;font style=&quot;font-size: 28px;&quot;&gt;数据库异步复制&lt;/font&gt;&lt;/b&gt;" style="edgeLabel;html=1;align=center;verticalAlign=middle;resizable=0;points=[];fontSize=30;fontColor=#000000;" vertex="1" connectable="0" parent="byvvLO80dV4j0Tp1s94O-197">
          <mxGeometry x="0.1581" y="-5" relative="1" as="geometry">
            <mxPoint as="offset" />
          </mxGeometry>
        </mxCell>
      </root>
    </mxGraphModel>
  </diagram>
</mxfile>
